<svg width="45" height="40" viewBox="0 0 45 40" fill="none" xmlns="http://www.w3.org/2000/svg">
<rect width="44.3182" height="40" rx="10" fill="white"/>
<path d="M30.6616 7.561C30.5099 7.3796 30.3182 7.23584 30.1016 7.141C29.893 7.0404 29.663 6.99233 29.4316 7.00099L14.8716 7.28099C14.3118 7.36774 13.8066 7.66618 13.4605 8.11467C13.1143 8.56315 12.9536 9.12744 13.0116 9.69099V33.061L21.4916 26.061C21.7059 25.8811 21.9768 25.7825 22.2566 25.7825C22.5364 25.7825 22.8073 25.8811 23.0216 26.061L31.3516 33.061V9.41099C31.3504 9.07057 31.293 8.73269 31.1816 8.41099C31.0678 8.09528 30.8909 7.80606 30.6616 7.561Z" fill="#FF7549"/>
</svg>
